Coordinates
version=1
nRows=10
nColumns=34
inDegrees=yes

Units are S.I. units (second, meters, Newtons, ...)
If the header above contains a line with 'inDegrees', this indicates whether rotational values are in degrees (yes) or radians (no).

endheader
time	pelvis_tilt	pelvis_list	pelvis_rotation	pelvis_tx	pelvis_ty	pelvis_tz	hip_flexion_r	hip_adduction_r	hip_rotation_r	knee_angle_r	ankle_angle_r	subtalar_angle_r	mtp_angle_r	hip_flexion_l	hip_adduction_l	hip_rotation_l	knee_angle_l	ankle_angle_l	subtalar_angle_l	mtp_angle_l	lumbar_extension	lumbar_bending	lumbar_rotation	arm_flex_r	arm_add_r	arm_rot_r	elbow_flex_r	pro_sup_r	arm_flex_l	arm_add_l	arm_rot_l	elbow_flex_l	pro_sup_l
      1.46666670	     -6.75483593	      1.42490454	     -2.80068501	     -0.05490334	      1.26512813	     -0.04310030	      2.78294037	      2.02385532	    -21.17334796	      0.00000000	    -16.87286493	     -6.46810143	      0.00000000	      5.33180722	      0.32796956	    -15.66579442	      1.33126245	      9.34604297	     10.07348049	      0.00000000	      1.13554940	      0.85309487	      3.15495237	    -11.72800153	     -7.13904190	     -5.86168014	     22.78921992	     93.19530608	     -7.68664268	     -7.03580910	     12.84735599	     16.85871772	     94.02778307
      1.48333330	     -7.03370688	      1.38741039	     -3.29648734	     -0.04561168	      1.26393120	     -0.04275694	      2.86901379	      2.09583746	    -21.69452571	      0.00000000	    -18.17233348	     -7.39462521	      0.00000000	      5.50942238	      0.20742494	    -15.10494688	      1.67575829	     10.37722200	      9.97092235	      0.00000000	      1.14487760	      1.04260126	      3.31838700	    -11.95556163	     -7.31598292	     -6.09727538	     22.51705596	     93.19433761	     -8.34747481	     -6.77630671	     12.72780237	     16.31729263	     93.96200626
      1.50000000	     -7.44700848	      1.42590749	     -3.81616051	     -0.04384837	      1.26558362	     -0.04207225	      3.10237015	      2.06765825	    -22.53319153	      0.00000000	    -20.47351636	     -9.39029727	      0.00000000	      6.18153674	      0.10562839	    -14.20179779	      2.36465706	     11.92459887	     10.38983635	      0.00000000	      1.00207146	      1.07120855	      3.57632390	    -11.87101271	     -7.42676713	     -6.45642629	     22.02253568	     93.18703488	     -8.65984373	     -6.47108987	     12.48923814	     15.49878316	     93.75215495
      1.51666670	     -7.61772258	      1.60480511	     -4.42708273	     -0.04000396	      1.26692605	     -0.04110969	      3.19841223	      1.91337926	    -22.85355355	      0.00000000	    -20.50728097	     -9.61838988	      0.00000000	      6.31056102	      0.19330909	    -13.99086180	      2.86453766	     12.07768753	     10.43302406	      0.00000000	      0.59743688	      0.97621760	      3.89039135	    -11.76416987	     -7.55306676	     -6.48782511	     21.98218044	     93.18323967	     -9.13602277	     -6.35083834	     12.51163745	     15.30787970	     93.74492635
      1.53333330	     -7.90603433	      1.68486125	     -4.58538460	     -0.04019337	      1.26297261	     -0.04070148	      3.56033492	      1.88379420	    -22.58313146	      0.00000000	    -21.42167740	    -11.48004146	      0.00000000	      6.99349684	      0.16349866	    -12.95428528	      4.25002046	     13.64115687	      9.50048002	      0.00000000	      0.12748457	      0.87695294	      4.24686766	    -10.95069419	     -7.56180750	     -6.63199481	     20.87450937	     93.10394796	     -8.53280575	     -6.16869544	     12.67211460	     14.24195142	     93.34628477
      1.55000000	     -7.94522226	      1.64676218	     -4.74530352	     -0.04077517	      1.25379891	     -0.04075161	      3.75106519	      1.98111980	    -21.40974535	      0.00000000	    -19.92177268	    -11.86791373	      0.00000000	      7.56488984	     -0.04536436	    -12.30442822	      5.89478456	     15.13220593	      8.60524706	      0.00000000	     -0.70806051	      0.88989110	      4.54474069	    -10.30520373	     -7.66435155	     -6.61519059	     20.86100305	     93.06961719	     -8.15119499	     -6.17278564	     12.81146641	     14.20511223	     93.23075914
      1.56666670	     -7.75752926	      1.59902068	     -4.76415926	     -0.03736916	      1.24531395	     -0.04191536	      4.03020875	      1.94257464	    -19.43014741	      0.60302388	    -16.67058921	    -12.66764850	      0.00000000	      8.28962901	     -0.21389504	    -10.91955160	      8.03314380	     17.32327930	      7.27487316	      0.00000000	     -1.92893224	      0.91698828	      4.76043283	     -9.29659410	     -7.92272488	     -6.60179391	     20.90236572	     93.00553525	     -7.48958804	     -6.07730285	     13.03155188	     14.17334168	     93.08442630
      1.58333330	     -7.53909358	      1.56930554	     -4.59478855	     -0.03405497	      1.23929350	     -0.04177609	      4.53158972	      1.52361249	    -19.36391061	      2.85675825	    -17.67274744	    -15.36371229	      0.00000000	      9.24853486	     -0.23779484	     -8.52825405	     10.90582164	     18.58746458	      4.53055056	      0.00000000	     -3.27722289	      0.96699936	      4.44441418	     -8.08923306	     -8.20031512	     -6.33686546	     20.66988400	     92.69701707	     -6.65130113	     -6.03841106	     14.02029716	     13.72202495	     92.34423063
      1.60000000	     -7.36977720	      1.22742408	     -4.71757968	     -0.04524396	      1.23008626	     -0.04091007	      6.20114158	      1.49386647	    -17.50936874	      6.69064893	    -15.49679048	    -18.10195254	      0.00000000	     11.06199394	     -0.83183234	     -7.41076635	     15.04496517	     21.82021488	      2.53158590	      0.00000000	     -5.50640600	      1.27471629	      4.61277906	     -6.16270919	     -8.68736931	     -6.20388473	     21.26259058	     92.60945067	     -4.84114368	     -6.01299307	     14.28952916	     14.02135498	     92.14406240
      1.61666670	     -7.82389068	      1.07872164	     -4.49041849	     -0.03732079	      1.22704838	     -0.04087038	      8.79465817	      1.15414680	    -15.10514593	     11.65672052	    -22.20665054	    -27.65569311	      0.00000000	     13.82002271	     -0.97676105	     -4.53778637	     19.99243989	     22.46865173	     -1.46415479	      0.00000000	     -6.68179668	      1.47291750	      4.03656776	     -4.34977663	     -9.05650035	     -5.15791766	     22.11263292	     92.26034715	     -3.01685005	     -6.09544284	     15.82963293	     13.90835391	     91.38487406
